<svg xmlns="http://www.w3.org/2000/svg" viewBox="0 0 281.03 154.70" width="281" height="155"><g font-family="Inter, Helvetica, Arial, sans-serif" fill="#33373B"><path d="M165.88 14.05L165.88 50.88L172.64 50.88L172.64 47.81L172.66 47.60L172.73 47.39L172.84 47.20L172.99 47.04L173.16 46.92L173.36 46.83L173.58 46.79L173.80 46.80L174.00 46.86L174.20 46.96L174.37 47.09L175.79 48.52L175.95 48.73L176.06 48.98L176.09 49.24L176.09 68.55L176.07 68.95L175.99 69.34L175.86 69.72L175.68 70.08L175.46 70.41L175.20 70.72L174.90 70.98L174.57 71.20L174.37 71.29L174.17 71.33L173.95 71.33L173.74 71.29L173.55 71.20L173.38 71.08L173.23 70.92L173.12 70.73L173.06 70.53L173.03 70.31L173.03 68.28L165.88 68.28L165.88 88.74L173.05 88.74L173.05 86.69L173.07 86.48L173.14 86.28L173.25 86.09L173.39 85.93L173.56 85.81L173.76 85.72L173.97 85.68L174.18 85.68L174.39 85.72L174.58 85.81L174.91 86.03L175.21 86.29L175.48 86.59L175.70 86.92L175.88 87.29L176.01 87.67L176.09 88.06L176.11 88.46L176.11 90.78L176.09 91.01L176.01 91.23L175.89 91.42L175.72 91.58L175.53 91.71L175.31 91.78L175.08 91.81L165.88 91.81L165.88 110.22L204.86 110.22L204.86 107.97L204.14 107.97L203.93 107.95L203.74 107.88L203.56 107.77L203.42 107.62L203.31 107.45L203.24 107.25L203.22 107.04L203.24 106.84L203.31 106.64L203.42 106.47L203.56 106.32L203.74 106.21L203.93 106.14L204.14 106.12L208.44 106.12L208.64 106.14L208.84 106.21L209.01 106.32L209.16 106.47L209.27 106.64L209.34 106.84L209.36 107.04L209.34 107.25L209.27 107.45L209.16 107.62L209.01 107.77L208.84 107.88L208.64 107.95L208.44 107.97L207.31 107.97L207.31 110.22L217.55 110.22L217.55 107.97L216.42 107.97L216.22 107.95L216.02 107.88L215.85 107.77L215.70 107.62L215.59 107.45L215.52 107.25L215.50 107.04L215.52 106.84L215.59 106.64L215.70 106.47L215.85 106.32L216.02 106.21L216.22 106.14L216.42 106.12L218.58 106.12L218.81 106.14L219.02 106.22L219.22 106.34L219.38 106.50L219.50 106.70L219.58 106.91L219.60 107.14L219.60 112.26L219.58 112.49L219.50 112.70L219.38 112.90L219.22 113.06L219.02 113.18L218.81 113.26L218.58 113.28L151.56 113.28L84.56 113.28L84.33 113.26L84.11 113.18L83.92 113.06L83.76 112.90L83.63 112.70L83.56 112.49L83.53 112.26L83.53 107.14L83.56 106.91L83.63 106.70L83.76 106.50L83.92 106.34L84.11 106.22L84.33 106.14L84.56 106.12L86.71 106.12L86.92 106.14L87.11 106.21L87.29 106.32L87.43 106.47L87.54 106.64L87.61 106.84L87.63 107.04L87.61 107.25L87.54 107.45L87.43 107.62L87.29 107.77L87.11 107.88L86.92 107.95L86.71 107.97L85.58 107.97L85.58 110.22L95.81 110.22L95.81 107.97L94.68 107.97L94.47 107.95L94.28 107.88L94.10 107.77L93.96 107.62L93.85 107.45L93.78 107.25L93.76 107.04L93.78 106.84L93.85 106.64L93.96 106.47L94.10 106.32L94.28 106.21L94.47 106.14L94.68 106.12L98.98 106.12L99.19 106.14L99.38 106.21L99.56 106.32L99.70 106.47L99.81 106.64L99.88 106.84L99.90 107.04L99.88 107.25L99.81 107.45L99.70 107.62L99.56 107.77L99.38 107.88L99.19 107.95L98.98 107.97L98.26 107.97L98.26 110.22L137.24 110.22L137.24 91.81L128.04 91.81L127.80 91.78L127.59 91.71L127.40 91.58L127.23 91.42L127.11 91.23L127.03 91.01L127.01 90.78L127.01 88.46L127.03 88.06L127.11 87.67L127.24 87.29L127.42 86.92L127.64 86.59L127.90 86.29L128.20 86.03L128.54 85.81L128.73 85.72L128.94 85.68L129.15 85.68L129.36 85.72L129.55 85.81L129.72 85.93L129.87 86.09L129.98 86.28L130.05 86.48L130.07 86.69L130.07 88.74L137.24 88.74L137.24 68.28L130.07 68.28L130.07 70.32L130.05 70.54L129.98 70.74L129.87 70.92L129.72 71.09L129.55 71.21L129.36 71.29L129.15 71.34L128.94 71.34L128.73 71.29L128.54 71.21L128.20 70.99L127.90 70.72L127.64 70.42L127.42 70.09L127.24 69.73L127.11 69.35L127.03 68.96L127.01 68.56L127.01 49.24L127.05 48.98L127.15 48.73L127.31 48.52L128.74 47.09L128.91 46.96L129.10 46.86L129.31 46.80L129.52 46.79L129.74 46.83L129.94 46.92L130.12 47.04L130.26 47.20L130.37 47.39L130.44 47.60L130.46 47.81L130.46 50.88L137.22 50.88L137.22 14.05L130.49 14.05L130.49 17.12L130.46 17.34L130.40 17.54L130.29 17.73L130.14 17.89L129.96 18.01L129.76 18.10L129.55 18.14L129.33 18.13L129.12 18.08L128.93 17.98L128.76 17.84L127.33 16.41L127.17 16.20L127.07 15.96L127.03 15.69L127.03 12.01L127.06 11.78L127.13 11.56L127.26 11.37L127.42 11.21L127.61 11.08L127.83 11.00L128.06 10.98L151.59 10.98L175.11 10.98L175.35 11.00L175.56 11.08L175.75 11.21L175.92 11.37L176.04 11.56L176.12 11.78L176.14 12.01L176.14 15.69L176.10 15.96L176.00 16.20L175.84 16.41L174.41 17.84L174.24 17.98L174.05 18.08L173.84 18.13L173.63 18.14L173.41 18.10L173.21 18.01L173.03 17.89L172.89 17.73L172.78 17.54L172.71 17.34L172.69 17.12L172.69 14.05L165.88 14.05M162.81 109.60L162.81 62.96L162.84 62.72L162.90 62.49L163.01 62.27L163.15 62.08L163.32 61.92L163.52 61.79L163.75 61.69L163.98 61.64L164.22 61.63L164.46 61.66L164.69 61.74L164.90 61.85L165.08 62.01L165.40 62.29L165.74 62.53L166.10 62.73L166.48 62.90L166.87 63.03L167.28 63.12L167.70 63.17L168.11 63.17L168.53 63.13L168.94 63.04L169.34 62.92L169.72 62.76L170.09 62.56L170.43 62.32L170.74 62.05L171.03 61.75L171.28 61.42L171.51 61.06L171.69 60.69L171.84 60.30L171.94 59.90L172.01 59.49L172.03 59.07L172.01 58.65L171.94 58.25L171.84 57.84L171.69 57.45L171.51 57.08L171.28 56.73L171.03 56.39L170.74 56.09L170.43 55.82L170.09 55.59L169.72 55.38L169.34 55.22L168.94 55.10L168.53 55.01L168.11 54.98L167.70 54.98L167.28 55.02L166.87 55.11L166.48 55.24L166.10 55.41L165.74 55.62L165.40 55.86L165.08 56.13L164.90 56.29L164.69 56.40L164.46 56.48L164.22 56.51L163.98 56.50L163.75 56.45L163.52 56.36L163.32 56.23L163.15 56.06L163.01 55.87L162.90 55.65L162.84 55.42L162.81 55.18L162.81 14.67L159.24 14.67L159.24 14.05L151.56 14.05L143.89 14.05L143.89 14.67L140.31 14.67L140.31 55.18L140.29 55.42L140.23 55.65L140.12 55.86L139.98 56.06L139.80 56.22L139.60 56.35L139.38 56.44L139.15 56.50L138.91 56.50L138.67 56.47L138.44 56.39L138.23 56.28L138.04 56.13L137.73 55.85L137.39 55.61L137.03 55.40L136.65 55.23L136.26 55.10L135.85 55.01L135.43 54.97L135.01 54.97L134.60 55.01L134.19 55.09L133.79 55.22L133.40 55.38L133.04 55.58L132.70 55.82L132.38 56.09L132.10 56.39L131.84 56.72L131.62 57.07L131.44 57.44L131.29 57.84L131.18 58.24L131.12 58.65L131.10 59.06L131.12 59.48L131.18 59.89L131.29 60.29L131.44 60.68L131.62 61.05L131.84 61.41L132.10 61.74L132.38 62.04L132.70 62.31L133.04 62.55L133.40 62.75L133.79 62.91L134.19 63.03L134.60 63.12L135.01 63.16L135.43 63.16L135.85 63.11L136.26 63.03L136.65 62.90L137.03 62.73L137.39 62.52L137.73 62.28L138.04 62.00L138.23 61.85L138.44 61.73L138.67 61.65L138.91 61.62L139.15 61.63L139.38 61.69L139.60 61.78L139.80 61.91L139.98 62.07L140.12 62.26L140.23 62.48L140.29 62.71L140.31 62.95L140.31 109.60L143.89 109.60L143.89 110.21L151.56 110.21L159.24 110.21L159.24 109.60L162.81 109.60" fill="#0E2A47" stroke="none" fill-rule="evenodd"/><path d="M162.82 109.60L162.82 62.96" fill="none" stroke="#33373B" stroke-width="0.66"/><path d="M165.08 62.00C164.55 61.48 163.71 61.50 163.19 62.03C162.95 62.28 162.81 62.62 162.81 62.97" fill="none" stroke="#33373B" stroke-width="0.66"/><path d="M165.08 62.00C166.70 63.57 169.29 63.54 170.87 61.92C172.44 60.30 172.40 57.71 170.78 56.13C169.19 54.59 166.66 54.59 165.07 56.13" fill="none" stroke="#33373B" stroke-width="0.66"/><path d="M162.82 55.18C162.82 55.92 163.42 56.51 164.16 56.51C164.50 56.51 164.83 56.37 165.09 56.13" fill="none" stroke="#33373B" stroke-width="0.66"/><path d="M162.82 55.18L162.82 14.67L159.24 14.67L159.24 14.05L151.57 14.05L143.90 14.05L143.90 14.67L140.32 14.67L140.32 55.18" fill="none" stroke="#33373B" stroke-width="0.66"/><path d="M138.04 56.13C138.58 56.65 139.42 56.63 139.93 56.10C140.17 55.86 140.31 55.52 140.31 55.17" fill="none" stroke="#33373B" stroke-width="0.66"/><path d="M138.04 56.13C136.43 54.56 133.83 54.60 132.26 56.22C130.69 57.84 130.73 60.43 132.35 62.00C133.93 63.54 136.46 63.54 138.05 62.00" fill="none" stroke="#33373B" stroke-width="0.66"/><path d="M140.31 62.96C140.31 62.22 139.72 61.62 138.98 61.62C138.63 61.62 138.30 61.76 138.04 62.00" fill="none" stroke="#33373B" stroke-width="0.66"/><path d="M140.31 62.96L140.31 109.60L143.89 109.60L143.89 110.22L151.56 110.22L159.24 110.22L159.24 109.60L162.81 109.60" fill="none" stroke="#33373B" stroke-width="0.66"/><path d="M165.88 14.05L165.88 50.88L172.64 50.88L172.64 47.81" fill="none" stroke="#33373B" stroke-width="0.66"/><path d="M174.39 47.09C173.99 46.69 173.34 46.69 172.94 47.09C172.75 47.29 172.64 47.55 172.64 47.82" fill="none" stroke="#33373B" stroke-width="0.66"/><path d="M174.39 47.09L175.82 48.52" fill="none" stroke="#33373B" stroke-width="0.66"/><path d="M176.12 49.24C176.12 48.97 176.01 48.71 175.82 48.51" fill="none" stroke="#33373B" stroke-width="0.66"/><path d="M176.12 49.24L176.12 68.55" fill="none" stroke="#33373B" stroke-width="0.66"/><path d="M174.58 71.21C175.53 70.66 176.12 69.65 176.12 68.55" fill="none" stroke="#33373B" stroke-width="0.66"/><path d="M173.05 70.32C173.05 70.88 173.50 71.35 174.07 71.35C174.25 71.35 174.43 71.30 174.58 71.21" fill="none" stroke="#33373B" stroke-width="0.66"/><path d="M173.05 70.32L173.05 68.28L165.88 68.28L165.88 88.74L173.05 88.74L173.05 86.69" fill="none" stroke="#33373B" stroke-width="0.66"/><path d="M174.58 85.81C174.10 85.52 173.46 85.69 173.19 86.18C173.09 86.34 173.05 86.52 173.05 86.69" fill="none" stroke="#33373B" stroke-width="0.66"/><path d="M176.12 88.46C176.12 87.36 175.53 86.35 174.58 85.80" fill="none" stroke="#33373B" stroke-width="0.66"/><path d="M176.12 88.46L176.12 90.78" fill="none" stroke="#33373B" stroke-width="0.66"/><path d="M175.09 91.81C175.65 91.81 176.12 91.35 176.12 90.78" fill="none" stroke="#33373B" stroke-width="0.66"/><path d="M175.09 91.81L165.88 91.81L165.88 110.22L204.86 110.22L204.86 107.97L204.14 107.97" fill="none" stroke="#33373B" stroke-width="0.66"/><path d="M204.15 106.13C203.64 106.13 203.23 106.54 203.23 107.04C203.23 107.55 203.64 107.96 204.15 107.96" fill="none" stroke="#33373B" stroke-width="0.66"/><path d="M204.15 106.13L208.44 106.13" fill="none" stroke="#33373B" stroke-width="0.66"/><path d="M208.44 107.97C208.95 107.97 209.36 107.56 209.36 107.05C209.36 106.54 208.95 106.13 208.44 106.13" fill="none" stroke="#33373B" stroke-width="0.66"/><path d="M208.44 107.97L207.32 107.97L207.32 110.22L217.55 110.22L217.55 107.97L216.42 107.97" fill="none" stroke="#33373B" stroke-width="0.66"/><path d="M216.42 106.13C215.92 106.13 215.51 106.54 215.51 107.04C215.51 107.55 215.92 107.96 216.42 107.96" fill="none" stroke="#33373B" stroke-width="0.66"/><path d="M216.42 106.13L218.58 106.13" fill="none" stroke="#33373B" stroke-width="0.66"/><path d="M219.59 107.15C219.59 106.59 219.14 106.13 218.57 106.13" fill="none" stroke="#33373B" stroke-width="0.66"/><path d="M219.59 107.15L219.59 112.27" fill="none" stroke="#33373B" stroke-width="0.66"/><path d="M218.58 113.29C219.14 113.29 219.60 112.84 219.60 112.27" fill="none" stroke="#33373B" stroke-width="0.66"/><path d="M218.58 113.29L151.56 113.29L84.56 113.29" fill="none" stroke="#33373B" stroke-width="0.66"/><path d="M83.53 112.27C83.53 112.83 83.99 113.29 84.56 113.29" fill="none" stroke="#33373B" stroke-width="0.66"/><path d="M83.53 112.27L83.53 107.15" fill="none" stroke="#33373B" stroke-width="0.66"/><path d="M84.56 106.13C83.99 106.13 83.53 106.58 83.53 107.15" fill="none" stroke="#33373B" stroke-width="0.66"/><path d="M84.56 106.13L86.71 106.13" fill="none" stroke="#33373B" stroke-width="0.66"/><path d="M86.71 107.97C87.22 107.97 87.63 107.56 87.63 107.05C87.63 106.54 87.22 106.13 86.71 106.13" fill="none" stroke="#33373B" stroke-width="0.66"/><path d="M86.71 107.97L85.58 107.97L85.58 110.22L95.81 110.22L95.81 107.97L94.68 107.97" fill="none" stroke="#33373B" stroke-width="0.66"/><path d="M94.68 106.13C94.17 106.13 93.77 106.54 93.77 107.04C93.77 107.55 94.17 107.96 94.68 107.96" fill="none" stroke="#33373B" stroke-width="0.66"/><path d="M94.68 106.13L98.98 106.13" fill="none" stroke="#33373B" stroke-width="0.66"/><path d="M98.98 107.97C99.49 107.97 99.90 107.56 99.90 107.05C99.90 106.54 99.49 106.13 98.98 106.13" fill="none" stroke="#33373B" stroke-width="0.66"/><path d="M98.98 107.97L98.26 107.97L98.26 110.22L137.24 110.22L137.24 91.81L128.04 91.81" fill="none" stroke="#33373B" stroke-width="0.66"/><path d="M127.01 90.78C127.01 91.34 127.46 91.81 128.04 91.81" fill="none" stroke="#33373B" stroke-width="0.66"/><path d="M127.01 90.78L127.01 88.46" fill="none" stroke="#33373B" stroke-width="0.66"/><path d="M128.54 85.81C127.60 86.35 127.01 87.36 127.01 88.47" fill="none" stroke="#33373B" stroke-width="0.66"/><path d="M130.08 86.69C130.08 86.12 129.62 85.66 129.05 85.66C128.88 85.66 128.70 85.71 128.54 85.80" fill="none" stroke="#33373B" stroke-width="0.66"/><path d="M130.08 86.69L130.08 88.73L137.24 88.73L137.24 68.28L130.08 68.28L130.08 70.32" fill="none" stroke="#33373B" stroke-width="0.66"/><path d="M128.54 71.21C129.03 71.49 129.66 71.32 129.94 70.83C130.03 70.68 130.08 70.50 130.08 70.32" fill="none" stroke="#33373B" stroke-width="0.66"/><path d="M127.01 68.55C127.01 69.64 127.60 70.66 128.54 71.21" fill="none" stroke="#33373B" stroke-width="0.66"/><path d="M127.01 68.55L127.01 49.24" fill="none" stroke="#33373B" stroke-width="0.66"/><path d="M127.31 48.51C127.12 48.71 127.01 48.97 127.01 49.24" fill="none" stroke="#33373B" stroke-width="0.66"/><path d="M127.31 48.51L128.74 47.09" fill="none" stroke="#33373B" stroke-width="0.66"/><path d="M130.49 47.81C130.49 47.25 130.03 46.79 129.46 46.79C129.19 46.79 128.93 46.89 128.74 47.09" fill="none" stroke="#33373B" stroke-width="0.66"/><path d="M130.49 47.81L130.49 50.88L137.24 50.88L137.24 14.05L130.49 14.05L130.49 17.12" fill="none" stroke="#33373B" stroke-width="0.66"/><path d="M128.74 17.84C129.14 18.25 129.79 18.25 130.19 17.84C130.38 17.65 130.49 17.39 130.49 17.12" fill="none" stroke="#33373B" stroke-width="0.66"/><path d="M128.74 17.84L127.31 16.42" fill="none" stroke="#33373B" stroke-width="0.66"/><path d="M127.01 15.70C127.01 15.97 127.12 16.23 127.31 16.43" fill="none" stroke="#33373B" stroke-width="0.66"/><path d="M127.01 15.70L127.01 12.01" fill="none" stroke="#33373B" stroke-width="0.66"/><path d="M128.04 10.99C127.47 10.99 127.01 11.44 127.01 12.02" fill="none" stroke="#33373B" stroke-width="0.66"/><path d="M128.04 10.99L151.56 10.99L175.09 10.99" fill="none" stroke="#33373B" stroke-width="0.66"/><path d="M176.12 12.01C176.12 11.44 175.66 10.98 175.09 10.98" fill="none" stroke="#33373B" stroke-width="0.66"/><path d="M176.12 12.01L176.12 15.69" fill="none" stroke="#33373B" stroke-width="0.66"/><path d="M175.82 16.42C176.01 16.23 176.12 15.96 176.12 15.69" fill="none" stroke="#33373B" stroke-width="0.66"/><path d="M175.82 16.42L174.39 17.84" fill="none" stroke="#33373B" stroke-width="0.66"/><path d="M172.65 17.12C172.65 17.68 173.10 18.15 173.67 18.15C173.94 18.15 174.20 18.04 174.40 17.84" fill="none" stroke="#33373B" stroke-width="0.66"/><path d="M172.65 17.12L172.65 14.05L165.88 14.05" fill="none" stroke="#33373B" stroke-width="0.66"/><path d="M120.17 10.99L50.00 10.99" fill="none" stroke="#33373B" stroke-width="0.20"/><path d="M76.68 113.29L50.00 113.29" fill="none" stroke="#33373B" stroke-width="0.20"/><path d="M57.08 18.07L57.08 54.97" fill="none" stroke="#33373B" stroke-width="0.20"/><path d="M57.08 106.20L57.08 69.30" fill="none" stroke="#33373B" stroke-width="0.20"/><path d="M58.26 18.07L55.90 18.07L57.08 10.99L58.26 18.07" fill="none" stroke="#33373B" stroke-width="0.19"/><path d="M58.26 18.07L55.90 18.07L57.08 10.99L58.26 18.07" fill="#0E2A47" stroke="none"/><path d="M55.90 106.20L58.26 106.20L57.08 113.28L55.90 106.20" fill="none" stroke="#33373B" stroke-width="0.19"/><path d="M55.90 106.20L58.26 106.20L57.08 113.28L55.90 106.20" fill="#0E2A47" stroke="none"/><path d="M83.53 120.13L83.53 141.91" fill="none" stroke="#33373B" stroke-width="0.20"/><path d="M219.59 119.01L219.59 141.91" fill="none" stroke="#33373B" stroke-width="0.20"/><path d="M90.62 134.82L212.52 134.82" fill="none" stroke="#33373B" stroke-width="0.20"/><path d="M90.62 133.64L90.62 136.00L83.54 134.82L90.62 133.64" fill="none" stroke="#33373B" stroke-width="0.19"/><path d="M90.62 133.64L90.62 136.00L83.54 134.82L90.62 133.64" fill="#0E2A47" stroke="none"/><path d="M212.52 136.00L212.52 133.64L219.59 134.82L212.52 136.00" fill="none" stroke="#33373B" stroke-width="0.19"/><path d="M212.52 136.00L212.52 133.64L219.59 134.82L212.52 136.00" fill="#0E2A47" stroke="none"/><path d="M162.82 40.04L162.82 41.07" fill="none" stroke="#33373B" stroke-width="0.20"/><path d="M165.88 40.04L165.88 41.07" fill="none" stroke="#33373B" stroke-width="0.20"/><path d="M155.74 33.99L148.66 33.99" fill="none" stroke="#33373B" stroke-width="0.20"/><path d="M172.97 33.99L180.05 33.99" fill="none" stroke="#33373B" stroke-width="0.20"/><path d="M155.74 35.17L155.74 32.81L162.81 33.99L155.74 35.17" fill="none" stroke="#33373B" stroke-width="0.19"/><path d="M155.74 35.17L155.74 32.81L162.81 33.99L155.74 35.17" fill="#0E2A47" stroke="none"/><path d="M172.97 32.81L172.97 35.17L165.89 33.99L172.97 32.81" fill="none" stroke="#33373B" stroke-width="0.19"/><path d="M172.97 32.81L172.97 35.17L165.89 33.99L172.97 32.81" fill="#0E2A47" stroke="none"/><text x="44.28" y="66.42" font-size="11.2">50.00</text><text x="138.75" y="131.94" font-size="11.2">66.50</text><text x="181.33" y="38.81" font-size="11.2">1.50</text></g></svg>