<svg xmlns="http://www.w3.org/2000/svg" viewBox="0 0 184.66 101.14" width="185" height="101"><g font-family="Inter, Helvetica, Arial, sans-serif" fill="#33373B"><path d="M70.99 36.85L70.75 36.87L70.53 36.91L70.30 36.98L70.09 37.08L69.89 37.21L69.71 37.36L69.55 37.53L69.41 37.72L69.30 37.93L69.21 38.14L69.15 38.37L69.12 38.60L69.12 38.84L69.15 39.07L69.21 39.30L69.30 39.52L69.41 39.72L69.55 39.91L69.71 40.08L69.89 40.23L70.09 40.36L70.30 40.46L70.53 40.53L70.75 40.57L70.99 40.59L76.04 40.59L76.14 40.60L76.23 40.65L76.29 40.72L76.34 40.80L76.35 40.90L76.35 73.50L75.43 73.50L75.25 73.52L75.09 73.56L74.93 73.64L74.80 73.74L74.68 73.87L74.59 74.02L74.53 74.18L74.50 74.35L74.50 74.52L74.54 74.69L74.60 74.85L77.63 80.57L77.73 80.72L77.85 80.86L78.00 80.98L78.16 81.07L78.33 81.13L78.52 81.16L78.70 81.16L78.88 81.13L79.06 81.07L79.22 80.98L79.37 80.87L79.49 80.73L79.59 80.58L79.67 80.42L79.72 80.24L79.73 80.06L79.73 45.06L79.75 44.83L79.80 44.62L79.88 44.40L79.99 44.21L80.13 44.03L80.29 43.87L80.47 43.74L80.67 43.64L80.89 43.57L88.79 41.57L89.00 41.53L89.21 41.53L89.43 41.57L97.33 43.57L97.54 43.64L97.74 43.74L97.93 43.87L98.09 44.03L98.23 44.21L98.34 44.40L98.42 44.62L98.47 44.83L98.48 45.06L98.48 80.05L98.50 80.23L98.54 80.41L98.62 80.57L98.72 80.72L98.85 80.86L99.00 80.97L99.16 81.06L99.33 81.12L99.52 81.15L99.70 81.15L99.88 81.12L100.05 81.06L100.22 80.97L100.36 80.85L100.48 80.71L100.59 80.56L103.61 74.84L103.68 74.68L103.71 74.51L103.72 74.34L103.69 74.17L103.63 74.01L103.53 73.86L103.42 73.73L103.28 73.63L103.13 73.55L102.96 73.51L102.79 73.49L101.88 73.49L101.88 40.89L101.89 40.79L101.94 40.71L102.00 40.64L102.09 40.59L102.19 40.58L107.24 40.58L107.48 40.56L107.70 40.52L107.93 40.45L108.14 40.35L108.34 40.22L108.52 40.07L108.68 39.90L108.82 39.71L108.93 39.51L109.02 39.29L109.08 39.06L109.11 38.83L109.11 38.59L109.08 38.36L109.02 38.13L108.93 37.91L108.82 37.71L108.68 37.52L108.52 37.35L108.34 37.20L108.14 37.07L107.93 36.97L107.70 36.90L107.48 36.86L107.24 36.84L96.80 36.84L96.80 35.31L96.79 34.85L96.75 34.38L96.68 33.92L96.58 33.47L96.46 33.02L96.31 32.58L96.13 32.15L95.93 31.73L95.70 31.33L95.44 30.94L95.17 30.56L94.87 30.21L94.55 29.87L94.21 29.55L93.86 29.25L93.48 28.98L93.09 28.73L92.69 28.50L92.27 28.30L91.84 28.12L91.40 27.97L90.96 27.84L90.50 27.74L90.04 27.67L89.58 27.63L89.11 27.62L88.65 27.63L88.19 27.67L87.72 27.74L87.27 27.84L86.82 27.97L86.38 28.12L85.95 28.30L85.54 28.50L85.13 28.73L84.74 28.98L84.37 29.25L84.01 29.55L83.67 29.87L83.35 30.21L83.05 30.56L82.78 30.94L82.53 31.33L82.30 31.73L82.10 32.15L81.92 32.58L81.77 33.02L81.64 33.47L81.54 33.92L81.47 34.38L81.43 34.85L81.42 35.31L81.42 36.85L70.99 36.85" fill="#0E2A47" stroke="none" fill-rule="evenodd"/><path d="M97.33 43.57L89.43 41.57" fill="none" stroke="#33373B" stroke-width="0.43"/><path d="M89.43 41.56C89.22 41.51 89.00 41.51 88.79 41.56" fill="none" stroke="#33373B" stroke-width="0.43"/><path d="M88.80 41.56L80.90 43.56" fill="none" stroke="#33373B" stroke-width="0.43"/><path d="M80.90 43.57C80.21 43.74 79.74 44.35 79.74 45.06" fill="none" stroke="#33373B" stroke-width="0.43"/><path d="M79.74 45.06L79.74 80.05" fill="none" stroke="#33373B" stroke-width="0.43"/><path d="M77.63 80.57C77.92 81.11 78.60 81.32 79.14 81.03C79.50 80.84 79.73 80.46 79.73 80.05" fill="none" stroke="#33373B" stroke-width="0.43"/><path d="M77.63 80.57L74.61 74.85" fill="none" stroke="#33373B" stroke-width="0.43"/><path d="M75.43 73.49C74.91 73.49 74.50 73.91 74.50 74.41C74.50 74.56 74.54 74.71 74.61 74.84" fill="none" stroke="#33373B" stroke-width="0.43"/><path d="M75.43 73.49L76.35 73.49L76.35 40.89" fill="none" stroke="#33373B" stroke-width="0.43"/><path d="M76.35 40.89C76.35 40.72 76.22 40.58 76.04 40.58" fill="none" stroke="#33373B" stroke-width="0.43"/><path d="M76.04 40.58L70.99 40.58" fill="none" stroke="#33373B" stroke-width="0.43"/><path d="M70.99 36.85C69.96 36.85 69.12 37.69 69.12 38.72C69.12 39.74 69.96 40.58 70.99 40.58" fill="none" stroke="#33373B" stroke-width="0.43"/><path d="M70.99 36.85L81.42 36.85L81.42 35.31" fill="none" stroke="#33373B" stroke-width="0.43"/><path d="M96.80 35.31C96.80 31.07 93.36 27.62 89.11 27.62C84.87 27.62 81.42 31.07 81.42 35.31" fill="none" stroke="#33373B" stroke-width="0.43"/><path d="M96.80 35.31L96.80 36.85L107.24 36.85" fill="none" stroke="#33373B" stroke-width="0.43"/><path d="M107.24 40.58C108.27 40.58 109.11 39.74 109.11 38.72C109.11 37.69 108.27 36.85 107.24 36.85" fill="none" stroke="#33373B" stroke-width="0.43"/><path d="M107.24 40.58L102.19 40.58" fill="none" stroke="#33373B" stroke-width="0.43"/><path d="M102.19 40.58C102.01 40.58 101.88 40.72 101.88 40.89" fill="none" stroke="#33373B" stroke-width="0.43"/><path d="M101.88 40.89L101.88 73.49L102.80 73.49" fill="none" stroke="#33373B" stroke-width="0.43"/><path d="M103.62 74.84C103.85 74.39 103.68 73.84 103.23 73.60C103.10 73.53 102.95 73.49 102.80 73.49" fill="none" stroke="#33373B" stroke-width="0.43"/><path d="M103.62 74.84L100.59 80.56" fill="none" stroke="#33373B" stroke-width="0.43"/><path d="M98.49 80.05C98.49 80.66 99.00 81.16 99.61 81.16C100.02 81.16 100.40 80.93 100.60 80.57" fill="none" stroke="#33373B" stroke-width="0.43"/><path d="M98.49 80.05L98.49 45.06" fill="none" stroke="#33373B" stroke-width="0.43"/><path d="M98.49 45.06C98.49 44.35 98.02 43.74 97.33 43.57" fill="none" stroke="#33373B" stroke-width="0.43"/><path d="M69.12 33.55L69.12 12.62" fill="none" stroke="#33373B" stroke-width="0.13"/><path d="M109.11 33.55L109.11 12.62" fill="none" stroke="#33373B" stroke-width="0.13"/><path d="M73.77 17.27L104.46 17.27" fill="none" stroke="#33373B" stroke-width="0.13"/><path d="M73.77 16.50L73.77 18.05L69.12 17.27L73.77 16.50" fill="none" stroke="#33373B" stroke-width="0.13"/><path d="M73.77 16.50L73.77 18.05L69.12 17.27L73.77 16.50" fill="#0E2A47" stroke="none"/><path d="M104.46 18.05L104.46 16.50L109.11 17.27L104.46 18.05" fill="none" stroke="#33373B" stroke-width="0.13"/><path d="M104.46 18.05L104.46 16.50L109.11 17.27L104.46 18.05" fill="#0E2A47" stroke="none"/><path d="M94.28 27.62L127.26 27.62" fill="none" stroke="#33373B" stroke-width="0.13"/><path d="M104.78 81.16L127.26 81.16" fill="none" stroke="#33373B" stroke-width="0.13"/><path d="M122.60 32.27L122.60 49.68" fill="none" stroke="#33373B" stroke-width="0.13"/><path d="M122.60 76.51L122.60 59.10" fill="none" stroke="#33373B" stroke-width="0.13"/><path d="M123.38 32.27L121.83 32.27L122.60 27.62L123.38 32.27" fill="none" stroke="#33373B" stroke-width="0.13"/><path d="M123.38 32.27L121.83 32.27L122.60 27.62L123.38 32.27" fill="#0E2A47" stroke="none"/><path d="M121.83 76.51L123.38 76.51L122.60 81.16L121.83 76.51" fill="none" stroke="#33373B" stroke-width="0.13"/><path d="M121.83 76.51L123.38 76.51L122.60 81.16L121.83 76.51" fill="#0E2A47" stroke="none"/><path d="M79.74 53.41L79.74 53.93" fill="none" stroke="#33373B" stroke-width="0.13"/><path d="M76.35 53.41L76.35 53.93" fill="none" stroke="#33373B" stroke-width="0.13"/><path d="M84.39 58.58L89.04 58.58" fill="none" stroke="#33373B" stroke-width="0.13"/><path d="M71.70 58.58L67.05 58.58" fill="none" stroke="#33373B" stroke-width="0.13"/><path d="M84.39 57.80L84.39 59.35L79.74 58.58L84.39 57.80" fill="none" stroke="#33373B" stroke-width="0.13"/><path d="M84.39 57.80L84.39 59.35L79.74 58.58L84.39 57.80" fill="#0E2A47" stroke="none"/><path d="M71.70 59.35L71.70 57.80L76.35 58.58L71.70 59.35" fill="none" stroke="#33373B" stroke-width="0.13"/><path d="M71.70 59.35L71.70 57.80L76.35 58.58L71.70 59.35" fill="#0E2A47" stroke="none"/><text x="114.07" y="57.21" font-size="7.3">17.40</text><text x="54.85" y="61.19" font-size="7.3">1.10</text><text x="80.58" y="15.37" font-size="7.3">13.00</text></g></svg>