<svg xmlns="http://www.w3.org/2000/svg" viewBox="0 0 177.40 92.91" width="177" height="93"><g font-family="Inter, Helvetica, Arial, sans-serif" fill="#33373B"><path d="M72.76 58.91L72.76 63.30L72.78 63.42L72.83 63.52L72.92 63.61L73.02 63.67L73.14 63.68L123.35 63.68L123.47 63.67L123.57 63.61L123.66 63.52L123.72 63.42L123.73 63.30L123.73 59.74L123.72 59.62L123.66 59.52L123.57 59.43L123.47 59.37L123.35 59.36L121.67 59.36L121.55 59.37L121.43 59.41L121.33 59.49L121.24 59.58L121.19 59.69L121.16 59.81L121.16 59.94L121.19 60.06L121.24 60.17L121.33 60.27L121.43 60.34L121.55 60.38L121.67 60.40L122.18 60.40L122.18 62.14L116.25 62.14L116.25 60.40L116.76 60.40L116.89 60.38L117.00 60.34L117.10 60.27L117.19 60.17L117.25 60.06L117.27 59.94L117.27 59.81L117.25 59.69L117.19 59.58L117.10 59.49L117.00 59.41L116.89 59.37L116.76 59.36L114.25 59.36L114.13 59.37L114.01 59.41L113.91 59.49L113.83 59.58L113.77 59.69L113.74 59.81L113.74 59.94L113.77 60.06L113.83 60.17L113.91 60.27L114.01 60.34L114.13 60.38L114.25 60.40L114.70 60.40L114.70 62.14L100.12 62.14L100.12 55.29L104.64 55.29L104.76 55.27L104.87 55.22L104.95 55.13L105.01 55.03L105.03 54.90L105.03 49.23L105.01 49.11L104.95 49.00L104.87 48.91L104.76 48.86L104.64 48.84L104.12 48.84L104.00 48.85L103.88 48.90L103.78 48.96L103.70 49.06L103.64 49.17L103.61 49.29L103.61 49.41L103.64 49.53L103.70 49.65L103.78 49.74L103.88 49.81L104.00 49.86L103.61 53.74L100.12 53.74L100.12 13.61L103.60 13.61L103.99 17.49L103.87 17.54L103.77 17.61L103.69 17.70L103.63 17.81L103.60 17.93L103.60 18.06L103.63 18.18L103.69 18.29L103.77 18.38L103.87 18.45L103.99 18.49L104.11 18.51L104.63 18.51L104.75 18.49L104.86 18.44L104.94 18.35L105.00 18.24L105.02 18.12L105.02 12.44L105.00 12.32L104.94 12.21L104.86 12.13L104.75 12.07L104.63 12.05L73.14 12.05L73.02 12.07L72.91 12.13L72.82 12.21L72.77 12.32L72.75 12.44L72.75 16.83L72.77 16.95L72.82 17.06L72.91 17.15L73.02 17.20L73.14 17.22L73.91 17.22L74.04 17.20L74.14 17.15L74.23 17.06L74.28 16.95L74.30 16.83L74.30 13.61L77.01 13.61L77.01 62.13L74.30 62.13L74.30 58.91L74.28 58.79L74.23 58.68L74.14 58.59L74.04 58.54L73.91 58.52L73.14 58.52L73.02 58.54L72.91 58.59L72.82 58.68L72.77 58.79L72.75 58.91M78.56 15.54L78.56 35.29L78.95 35.29L78.95 40.45L78.56 40.45L78.56 60.20L78.95 60.20L78.95 61.74L80.50 61.74L80.50 62.13L96.64 62.13L96.64 61.74L98.18 61.74L98.18 60.20L98.57 60.20L98.57 40.45L98.18 40.45L98.18 35.29L98.57 35.29L98.57 15.54L98.18 15.54L98.18 13.99L96.64 13.99L96.64 13.61L80.50 13.61L80.50 13.99L78.95 13.99L78.95 15.54L78.56 15.54" fill="#0E2A47" stroke="none" fill-rule="evenodd"/><path d="M98.57 15.54L98.57 35.29L98.18 35.29L98.18 40.45L98.57 40.45L98.57 60.20L98.18 60.20L98.18 61.74L96.63 61.74L96.63 62.13L80.50 62.13L80.50 61.74L78.95 61.74L78.95 60.20L78.56 60.20L78.56 40.45L78.95 40.45L78.95 35.29L78.56 35.29L78.56 15.54L78.95 15.54L78.95 13.99L80.49 13.99L80.49 13.61L96.63 13.61L96.63 13.99L98.18 13.99L98.18 15.54L98.57 15.54" fill="none" stroke="#33373B" stroke-width="0.41"/><path d="M73.14 12.06L104.63 12.06" fill="none" stroke="#33373B" stroke-width="0.41"/><path d="M105.02 12.44C105.02 12.23 104.85 12.05 104.63 12.05" fill="none" stroke="#33373B" stroke-width="0.41"/><path d="M105.02 12.44L105.02 18.12" fill="none" stroke="#33373B" stroke-width="0.41"/><path d="M104.63 18.51C104.85 18.51 105.02 18.33 105.02 18.12" fill="none" stroke="#33373B" stroke-width="0.41"/><path d="M104.63 18.51L104.12 18.51" fill="none" stroke="#33373B" stroke-width="0.41"/><path d="M103.99 17.49C103.71 17.57 103.55 17.85 103.62 18.12C103.68 18.35 103.88 18.51 104.12 18.51" fill="none" stroke="#33373B" stroke-width="0.41"/><path d="M103.99 17.49L103.60 13.61L100.12 13.61L100.12 53.74L103.60 53.74L103.99 49.86" fill="none" stroke="#33373B" stroke-width="0.41"/><path d="M104.12 48.84C103.83 48.84 103.60 49.07 103.60 49.35C103.60 49.59 103.76 49.80 103.99 49.86" fill="none" stroke="#33373B" stroke-width="0.41"/><path d="M104.12 48.84L104.63 48.84" fill="none" stroke="#33373B" stroke-width="0.41"/><path d="M105.02 49.23C105.02 49.01 104.85 48.84 104.63 48.84" fill="none" stroke="#33373B" stroke-width="0.41"/><path d="M105.02 49.23L105.02 54.90" fill="none" stroke="#33373B" stroke-width="0.41"/><path d="M104.63 55.29C104.85 55.29 105.02 55.12 105.02 54.90" fill="none" stroke="#33373B" stroke-width="0.41"/><path d="M104.63 55.29L100.12 55.29L100.12 62.13L114.70 62.13L114.70 60.39L114.25 60.39" fill="none" stroke="#33373B" stroke-width="0.41"/><path d="M114.25 59.36C113.96 59.36 113.73 59.59 113.73 59.88C113.73 60.16 113.97 60.39 114.25 60.39" fill="none" stroke="#33373B" stroke-width="0.41"/><path d="M114.25 59.36L116.76 59.36" fill="none" stroke="#33373B" stroke-width="0.41"/><path d="M116.76 60.39C117.05 60.39 117.28 60.16 117.28 59.88C117.28 59.59 117.05 59.36 116.76 59.36" fill="none" stroke="#33373B" stroke-width="0.41"/><path d="M116.76 60.39L116.25 60.39L116.25 62.13L122.18 62.13L122.18 60.39L121.67 60.39" fill="none" stroke="#33373B" stroke-width="0.41"/><path d="M121.67 59.36C121.39 59.36 121.16 59.59 121.16 59.88C121.16 60.16 121.39 60.39 121.67 60.39" fill="none" stroke="#33373B" stroke-width="0.41"/><path d="M121.67 59.36L123.35 59.36" fill="none" stroke="#33373B" stroke-width="0.41"/><path d="M123.73 59.74C123.73 59.53 123.56 59.36 123.35 59.36" fill="none" stroke="#33373B" stroke-width="0.41"/><path d="M123.73 59.74L123.73 63.30" fill="none" stroke="#33373B" stroke-width="0.41"/><path d="M123.35 63.68C123.56 63.68 123.73 63.50 123.73 63.29" fill="none" stroke="#33373B" stroke-width="0.41"/><path d="M123.35 63.68L73.14 63.68" fill="none" stroke="#33373B" stroke-width="0.41"/><path d="M72.76 63.30C72.76 63.51 72.93 63.68 73.14 63.68" fill="none" stroke="#33373B" stroke-width="0.41"/><path d="M72.76 63.30L72.76 58.91" fill="none" stroke="#33373B" stroke-width="0.41"/><path d="M73.14 58.52C72.93 58.52 72.75 58.69 72.75 58.91" fill="none" stroke="#33373B" stroke-width="0.41"/><path d="M73.14 58.52L73.91 58.52" fill="none" stroke="#33373B" stroke-width="0.41"/><path d="M74.30 58.91C74.30 58.69 74.13 58.52 73.91 58.52" fill="none" stroke="#33373B" stroke-width="0.41"/><path d="M74.30 58.91L74.30 62.13L77.01 62.13L77.01 13.61L74.30 13.61L74.30 16.83" fill="none" stroke="#33373B" stroke-width="0.41"/><path d="M73.92 17.22C74.13 17.22 74.31 17.04 74.31 16.83" fill="none" stroke="#33373B" stroke-width="0.41"/><path d="M73.92 17.22L73.14 17.22" fill="none" stroke="#33373B" stroke-width="0.41"/><path d="M72.76 16.83C72.76 17.04 72.93 17.22 73.14 17.22" fill="none" stroke="#33373B" stroke-width="0.41"/><path d="M72.76 16.83L72.76 12.44" fill="none" stroke="#33373B" stroke-width="0.41"/><path d="M73.14 12.06C72.93 12.06 72.75 12.23 72.75 12.45" fill="none" stroke="#33373B" stroke-width="0.41"/><path d="M72.76 68.26L72.76 82.22" fill="none" stroke="#33373B" stroke-width="0.13"/><path d="M123.73 68.26L123.73 82.22" fill="none" stroke="#33373B" stroke-width="0.13"/><path d="M77.22 77.75L119.26 77.75" fill="none" stroke="#33373B" stroke-width="0.13"/><path d="M77.22 77.01L77.22 78.50L72.76 77.75L77.22 77.01" fill="none" stroke="#33373B" stroke-width="0.12"/><path d="M77.22 77.01L77.22 78.50L72.76 77.75L77.22 77.01" fill="#0E2A47" stroke="none"/><path d="M119.27 78.50L119.27 77.01L123.73 77.75L119.27 78.50" fill="none" stroke="#33373B" stroke-width="0.12"/><path d="M119.27 78.50L119.27 77.01L123.73 77.75L119.27 78.50" fill="#0E2A47" stroke="none"/><path d="M68.18 63.68L47.99 63.68" fill="none" stroke="#33373B" stroke-width="0.13"/><path d="M68.18 12.06L47.99 12.06" fill="none" stroke="#33373B" stroke-width="0.13"/><path d="M52.45 59.21L52.45 42.39" fill="none" stroke="#33373B" stroke-width="0.13"/><path d="M52.45 16.52L52.45 33.35" fill="none" stroke="#33373B" stroke-width="0.13"/><path d="M51.71 59.21L53.20 59.21L52.45 63.68L51.71 59.21" fill="none" stroke="#33373B" stroke-width="0.12"/><path d="M51.71 59.21L53.20 59.21L52.45 63.68L51.71 59.21" fill="#0E2A47" stroke="none"/><path d="M53.20 16.52L51.71 16.52L52.45 12.06L53.20 16.52" fill="none" stroke="#33373B" stroke-width="0.12"/><path d="M53.20 16.52L51.71 16.52L52.45 12.06L53.20 16.52" fill="#0E2A47" stroke="none"/><path d="M98.57 23.62L98.57 23.56" fill="none" stroke="#33373B" stroke-width="0.12"/><path d="M100.12 23.62L100.12 23.56" fill="none" stroke="#33373B" stroke-width="0.12"/><path d="M94.10 28.09L89.63 28.09" fill="none" stroke="#33373B" stroke-width="0.13"/><path d="M104.58 28.09L109.05 28.09" fill="none" stroke="#33373B" stroke-width="0.13"/><path d="M94.10 28.83L94.10 27.34L98.57 28.09L94.10 28.83" fill="none" stroke="#33373B" stroke-width="0.12"/><path d="M94.10 28.83L94.10 27.34L98.57 28.09L94.10 28.83" fill="#0E2A47" stroke="none"/><path d="M104.58 27.34L104.58 28.83L100.12 28.09L104.58 27.34" fill="none" stroke="#33373B" stroke-width="0.12"/><path d="M104.58 27.34L104.58 28.83L100.12 28.09L104.58 27.34" fill="#0E2A47" stroke="none"/><text x="44.47" y="40.57" font-size="7.0">40.00</text><text x="90.17" y="75.94" font-size="7.0">39.50</text><text x="108.62" y="30.57" font-size="7.0">1.20</text></g></svg>