<svg xmlns="http://www.w3.org/2000/svg" viewBox="0 0 181.07 96.73" width="181" height="97"><g font-family="Inter, Helvetica, Arial, sans-serif" fill="#33373B"><path d="M31.53 62.68L31.55 62.82L31.60 62.94L31.68 63.05L31.79 63.13L31.91 63.18L32.05 63.20L35.18 63.20L35.32 63.18L35.44 63.13L35.55 63.05L35.63 62.94L35.68 62.82L35.70 62.68L35.70 62.16L35.68 62.02L35.63 61.90L35.55 61.79L35.44 61.71L35.32 61.66L35.18 61.64L33.61 61.64L33.47 61.62L33.35 61.57L33.24 61.49L33.16 61.38L33.11 61.26L33.09 61.12L33.09 58.51L33.11 58.37L33.16 58.25L33.24 58.14L33.35 58.06L33.47 58.01L33.61 57.99L79.25 58.06L79.36 58.14L79.44 58.25L79.49 58.37L79.50 58.51L79.50 61.12L79.49 61.25L79.44 61.38L79.36 61.49L79.25 61.57L79.12 61.62L78.98 61.63L78.46 61.63L78.32 61.65L78.20 61.70L78.09 61.79L78.01 61.89L77.96 62.02L77.94 62.16L77.94 62.68L77.96 62.82L78.01 62.94L78.09 63.05L78.20 63.13L78.32 63.18L78.46 63.20L82.11 63.20L82.25 63.18L82.38 63.13L82.48 63.05L82.57 62.94L82.62 62.82L82.63 62.68L82.63 62.16L82.62 62.02L82.57 61.90L82.48 61.79L82.38 61.71L82.25 61.66L82.11 61.64L81.59 61.64L81.45 61.62L81.33 61.57L81.22 61.49L81.14 61.38L81.09 61.26L81.07 61.12L81.07 58.51L81.09 58.37L81.14 58.25L81.22 58.14L81.33 58.06L81.45 58.01L81.59 57.99L124.62 58.06L124.73 58.14L124.81 58.25L124.86 58.37L124.88 58.51L124.88 62.68L124.90 62.82L124.95 62.94L125.03 63.05L125.13 63.13L125.26 63.18L125.40 63.20L128.53 63.20L128.66 63.18L128.79 63.13L128.90 63.05L128.98 62.94L129.03 62.82L129.05 62.68L129.05 62.16L129.03 62.02L128.98 61.90L128.90 61.79L128.79 61.71L128.66 61.66L128.53 61.64L126.96 61.64L126.83 61.62L126.70 61.57L126.59 61.49L126.51 61.38L126.46 61.26L126.45 61.12L126.46 48.47L126.51 48.34L126.59 48.23L126.70 48.15L126.83 48.10L126.96 48.08L165.17 48.10L165.30 48.15L165.41 48.23L165.49 48.34L165.54 48.47L165.56 48.60L165.54 61.25L165.49 61.38L165.41 61.49L165.30 61.57L165.17 61.62L165.04 61.63L163.47 61.63L163.34 61.65L163.21 61.70L163.10 61.79L163.02 61.89L162.97 62.02L162.96 62.16L162.96 62.68L162.97 62.82L163.02 62.94L163.10 63.05L163.21 63.13L163.34 63.18L163.47 63.20L166.60 63.20L166.74 63.18L166.87 63.13L166.97 63.05L167.05 62.94L167.10 62.82L167.13 62.68L167.10 35.95L167.05 35.82L166.97 35.71L166.87 35.63L166.74 35.58L166.60 35.57L126.70 35.50L126.60 35.41L126.52 35.31L126.47 35.18L126.45 35.04L126.45 29.30L126.44 29.16L126.38 29.04L126.30 28.93L126.20 28.85L126.07 28.80L125.93 28.78L125.41 28.78L125.27 28.80L125.14 28.85L125.04 28.93L124.96 29.04L124.91 29.16L124.89 29.30L124.87 41.95L124.82 42.08L124.74 42.19L124.63 42.27L124.50 42.32L124.37 42.34L106.50 42.32L106.37 42.27L106.27 42.19L106.18 42.08L106.13 41.95L106.11 41.81L106.13 19.53L106.19 19.40L106.28 19.29L106.40 19.21L109.53 17.61L109.64 17.57L109.76 17.56L109.89 17.57L110.00 17.61L113.13 19.21L113.25 19.29L113.34 19.40L113.40 19.53L113.42 19.67L113.42 25.65L113.43 25.79L113.48 25.92L113.56 26.02L113.67 26.10L113.80 26.16L113.93 26.18L114.45 26.18L114.59 26.16L114.72 26.10L114.82 26.02L114.91 25.92L114.96 25.79L114.97 25.65L114.97 18.72L114.95 18.58L114.89 18.44L114.80 18.33L114.69 18.25L109.75 15.74L104.82 18.25L104.71 18.33L104.61 18.44L104.56 18.58L104.54 18.72L104.52 41.96L104.47 42.08L104.39 42.19L104.28 42.27L104.16 42.32L104.02 42.34L69.98 42.32L69.86 42.27L69.75 42.19L69.67 42.08L69.62 41.96L69.60 41.82L69.62 19.54L69.67 19.40L69.77 19.29L69.88 19.21L73.01 17.62L73.13 17.58L73.25 17.56L73.37 17.58L73.49 17.62L76.62 19.21L76.73 19.29L76.83 19.40L76.88 19.54L76.90 19.68L76.90 25.65L76.92 25.79L76.97 25.92L77.05 26.02L77.16 26.10L77.29 26.16L77.43 26.18L77.95 26.18L78.08 26.16L78.21 26.10L78.31 26.02L78.40 25.92L78.45 25.79L78.46 25.65L78.46 18.72L78.44 18.58L78.39 18.44L78.29 18.33L78.18 18.25L73.24 15.74L68.31 18.25L68.20 18.33L68.10 18.44L68.05 18.58L68.03 18.72L68.01 41.96L67.96 42.08L67.88 42.19L67.77 42.27L67.64 42.32L67.51 42.34L33.47 42.32L33.35 42.27L33.24 42.19L33.16 42.08L33.11 41.96L33.09 41.82L33.11 19.54L33.17 19.40L33.26 19.29L33.38 19.21L36.51 17.62L36.62 17.58L36.75 17.56L36.87 17.58L36.98 17.62L40.11 19.21L40.23 19.29L40.32 19.40L40.38 19.54L40.40 19.68L40.40 25.65L40.41 25.79L40.46 25.92L40.54 26.02L40.65 26.10L40.78 26.16L40.91 26.18L41.43 26.18L41.57 26.16L41.70 26.10L41.80 26.02L41.89 25.92L41.94 25.79L41.96 25.65L41.96 18.72L41.94 18.58L41.88 18.44L41.79 18.33L41.67 18.25L36.74 15.74L31.81 18.25L31.69 18.33L31.60 18.44L31.54 18.58L31.52 18.72L31.52 62.68M33.09 44.43L33.09 55.90L33.11 56.04L33.16 56.16L33.24 56.27L33.35 56.35L33.47 56.40L33.61 56.42L124.73 56.27L124.81 56.16L124.87 56.03L124.88 55.89L124.87 44.28L124.81 44.16L124.73 44.05L124.63 43.97L124.50 43.92L124.36 43.90L103.37 43.92L103.24 43.97L103.13 44.05L103.05 44.16L103.00 44.28L102.98 44.42L102.98 45.98L102.96 46.12L102.91 46.25L102.83 46.36L102.73 46.44L102.60 46.49L102.47 46.50L101.94 46.50L101.81 46.49L101.68 46.44L101.57 46.36L101.49 46.25L101.44 46.12L101.42 45.98L101.42 44.43L101.41 44.29L101.36 44.16L101.28 44.05L101.17 43.97L101.04 43.92L100.91 43.91L66.56 43.92L66.43 43.97L66.32 44.05L66.24 44.16L66.19 44.29L66.17 44.43L66.17 45.99L66.15 46.13L66.10 46.25L66.02 46.36L65.92 46.44L65.79 46.49L65.65 46.51L65.13 46.51L64.99 46.49L64.86 46.44L64.76 46.36L64.68 46.25L64.63 46.13L64.61 45.99L64.61 44.43L64.59 44.29L64.54 44.16L64.46 44.05L64.36 43.97L64.23 43.92L64.09 43.91L43.09 43.92L42.97 43.97L42.86 44.05L42.78 44.16L42.73 44.29L42.71 44.43L42.71 45.99L42.69 46.13L42.64 46.25L42.56 46.36L42.45 46.44L42.33 46.49L42.19 46.51L41.65 46.51L41.51 46.49L41.38 46.44L41.28 46.36L41.19 46.25L41.14 46.13L41.12 45.99L41.12 44.43L41.11 44.29L41.06 44.16L40.98 44.05L40.87 43.97L40.74 43.92L40.61 43.91L33.61 43.91L33.47 43.92L33.35 43.97L33.24 44.05L33.16 44.16L33.11 44.29L33.09 44.43M126.46 45.99L126.47 46.13L126.52 46.25L126.60 46.36L126.71 46.44L126.84 46.49L126.97 46.51L165.18 46.49L165.31 46.44L165.42 46.36L165.50 46.25L165.55 46.13L165.57 45.99L165.57 37.64L165.55 37.51L165.50 37.38L165.42 37.27L165.31 37.19L165.18 37.14L165.05 37.12L126.84 37.14L126.71 37.19L126.60 37.27L126.52 37.38L126.47 37.51L126.46 37.64L126.46 45.99" fill="#0E2A47" stroke="none" fill-rule="evenodd"/><path d="M124.37 56.42L33.61 56.42" fill="none" stroke="#33373B" stroke-width="0.43"/><path d="M33.09 55.90C33.09 56.19 33.33 56.42 33.62 56.42" fill="none" stroke="#33373B" stroke-width="0.43"/><path d="M33.09 55.90L33.09 44.43" fill="none" stroke="#33373B" stroke-width="0.43"/><path d="M33.61 43.91C33.32 43.91 33.09 44.14 33.09 44.43" fill="none" stroke="#33373B" stroke-width="0.43"/><path d="M33.61 43.91L40.60 43.91" fill="none" stroke="#33373B" stroke-width="0.43"/><path d="M41.12 44.43C41.12 44.14 40.89 43.90 40.60 43.90" fill="none" stroke="#33373B" stroke-width="0.43"/><path d="M41.12 44.43L41.12 45.99" fill="none" stroke="#33373B" stroke-width="0.43"/><path d="M41.12 45.99C41.12 46.28 41.36 46.51 41.65 46.51" fill="none" stroke="#33373B" stroke-width="0.43"/><path d="M41.65 46.51L42.17 46.51" fill="none" stroke="#33373B" stroke-width="0.43"/><path d="M42.16 46.51C42.45 46.51 42.69 46.28 42.69 45.99" fill="none" stroke="#33373B" stroke-width="0.43"/><path d="M42.69 45.99L42.69 44.43" fill="none" stroke="#33373B" stroke-width="0.43"/><path d="M43.21 43.91C42.92 43.91 42.69 44.14 42.69 44.43" fill="none" stroke="#33373B" stroke-width="0.43"/><path d="M43.21 43.91L64.07 43.91" fill="none" stroke="#33373B" stroke-width="0.43"/><path d="M64.59 44.43C64.59 44.14 64.36 43.90 64.07 43.90" fill="none" stroke="#33373B" stroke-width="0.43"/><path d="M64.59 44.43L64.59 45.99" fill="none" stroke="#33373B" stroke-width="0.43"/><path d="M64.59 45.99C64.59 46.28 64.83 46.51 65.12 46.51" fill="none" stroke="#33373B" stroke-width="0.43"/><path d="M65.12 46.51L65.64 46.51" fill="none" stroke="#33373B" stroke-width="0.43"/><path d="M65.64 46.51C65.93 46.51 66.16 46.28 66.16 45.99" fill="none" stroke="#33373B" stroke-width="0.43"/><path d="M66.16 45.99L66.16 44.43" fill="none" stroke="#33373B" stroke-width="0.43"/><path d="M66.68 43.91C66.39 43.91 66.16 44.14 66.16 44.43" fill="none" stroke="#33373B" stroke-width="0.43"/><path d="M66.68 43.91L100.90 43.91" fill="none" stroke="#33373B" stroke-width="0.43"/><path d="M101.41 44.43C101.41 44.14 101.18 43.90 100.89 43.90" fill="none" stroke="#33373B" stroke-width="0.43"/><path d="M101.41 44.43L101.41 45.99" fill="none" stroke="#33373B" stroke-width="0.43"/><path d="M101.41 45.99C101.41 46.28 101.65 46.51 101.94 46.51" fill="none" stroke="#33373B" stroke-width="0.43"/><path d="M101.94 46.51L102.46 46.51" fill="none" stroke="#33373B" stroke-width="0.43"/><path d="M102.46 46.51C102.75 46.51 102.98 46.28 102.98 45.99" fill="none" stroke="#33373B" stroke-width="0.43"/><path d="M102.98 45.99L102.98 44.43" fill="none" stroke="#33373B" stroke-width="0.43"/><path d="M103.50 43.91C103.21 43.91 102.98 44.14 102.98 44.43" fill="none" stroke="#33373B" stroke-width="0.43"/><path d="M103.50 43.91L124.36 43.91" fill="none" stroke="#33373B" stroke-width="0.43"/><path d="M124.89 44.43C124.89 44.14 124.65 43.90 124.36 43.90" fill="none" stroke="#33373B" stroke-width="0.43"/><path d="M124.89 44.43L124.89 55.90" fill="none" stroke="#33373B" stroke-width="0.43"/><path d="M124.37 56.42C124.66 56.42 124.89 56.19 124.89 55.90" fill="none" stroke="#33373B" stroke-width="0.43"/><path d="M124.37 57.99L81.60 57.99" fill="none" stroke="#33373B" stroke-width="0.43"/><path d="M81.60 57.99C81.31 57.99 81.07 58.22 81.07 58.51" fill="none" stroke="#33373B" stroke-width="0.43"/><path d="M81.08 58.51L81.08 61.12" fill="none" stroke="#33373B" stroke-width="0.43"/><path d="M81.08 61.12C81.08 61.41 81.31 61.64 81.60 61.64" fill="none" stroke="#33373B" stroke-width="0.43"/><path d="M81.60 61.64L82.12 61.64" fill="none" stroke="#33373B" stroke-width="0.43"/><path d="M82.64 62.16C82.64 61.87 82.41 61.63 82.12 61.63" fill="none" stroke="#33373B" stroke-width="0.43"/><path d="M82.64 62.16L82.64 62.68" fill="none" stroke="#33373B" stroke-width="0.43"/><path d="M82.12 63.20C82.41 63.20 82.64 62.97 82.64 62.68" fill="none" stroke="#33373B" stroke-width="0.43"/><path d="M82.12 63.20L78.47 63.20" fill="none" stroke="#33373B" stroke-width="0.43"/><path d="M77.95 62.68C77.95 62.97 78.18 63.20 78.47 63.20" fill="none" stroke="#33373B" stroke-width="0.43"/><path d="M77.95 62.68L77.95 62.16" fill="none" stroke="#33373B" stroke-width="0.43"/><path d="M78.47 61.64C78.18 61.64 77.94 61.87 77.94 62.16" fill="none" stroke="#33373B" stroke-width="0.43"/><path d="M78.47 61.64L78.99 61.64" fill="none" stroke="#33373B" stroke-width="0.43"/><path d="M78.99 61.64C79.28 61.64 79.51 61.41 79.51 61.12" fill="none" stroke="#33373B" stroke-width="0.43"/><path d="M79.51 61.12L79.51 58.51" fill="none" stroke="#33373B" stroke-width="0.43"/><path d="M79.51 58.51C79.51 58.22 79.28 57.99 78.99 57.99" fill="none" stroke="#33373B" stroke-width="0.43"/><path d="M78.99 57.99L33.61 57.99" fill="none" stroke="#33373B" stroke-width="0.43"/><path d="M33.61 57.99C33.32 57.99 33.09 58.22 33.09 58.51" fill="none" stroke="#33373B" stroke-width="0.43"/><path d="M33.09 58.51L33.09 61.12" fill="none" stroke="#33373B" stroke-width="0.43"/><path d="M33.09 61.12C33.09 61.41 33.33 61.64 33.62 61.64" fill="none" stroke="#33373B" stroke-width="0.43"/><path d="M33.61 61.64L35.18 61.64" fill="none" stroke="#33373B" stroke-width="0.43"/><path d="M35.70 62.16C35.70 61.87 35.47 61.63 35.18 61.63" fill="none" stroke="#33373B" stroke-width="0.43"/><path d="M35.70 62.16L35.70 62.68" fill="none" stroke="#33373B" stroke-width="0.43"/><path d="M35.18 63.20C35.47 63.20 35.70 62.97 35.70 62.68" fill="none" stroke="#33373B" stroke-width="0.43"/><path d="M35.18 63.20L32.05 63.20" fill="none" stroke="#33373B" stroke-width="0.43"/><path d="M31.53 62.68C31.53 62.97 31.76 63.20 32.05 63.20" fill="none" stroke="#33373B" stroke-width="0.43"/><path d="M31.53 62.68L31.53 18.72" fill="none" stroke="#33373B" stroke-width="0.43"/><path d="M31.81 18.25C31.64 18.34 31.53 18.52 31.53 18.71" fill="none" stroke="#33373B" stroke-width="0.43"/><path d="M31.81 18.25L36.75 15.74L41.68 18.25" fill="none" stroke="#33373B" stroke-width="0.43"/><path d="M41.96 18.72C41.96 18.52 41.84 18.34 41.67 18.26" fill="none" stroke="#33373B" stroke-width="0.43"/><path d="M41.96 18.72L41.96 25.65" fill="none" stroke="#33373B" stroke-width="0.43"/><path d="M41.44 26.17C41.73 26.17 41.96 25.94 41.96 25.65" fill="none" stroke="#33373B" stroke-width="0.43"/><path d="M41.44 26.17L40.92 26.17" fill="none" stroke="#33373B" stroke-width="0.43"/><path d="M40.39 25.65C40.39 25.94 40.63 26.18 40.92 26.18" fill="none" stroke="#33373B" stroke-width="0.43"/><path d="M40.39 25.65L40.39 19.67" fill="none" stroke="#33373B" stroke-width="0.43"/><path d="M40.39 19.67C40.39 19.48 40.28 19.30 40.11 19.21" fill="none" stroke="#33373B" stroke-width="0.43"/><path d="M40.11 19.21L36.98 17.62" fill="none" stroke="#33373B" stroke-width="0.43"/><path d="M36.98 17.62C36.83 17.54 36.65 17.54 36.51 17.62" fill="none" stroke="#33373B" stroke-width="0.43"/><path d="M36.51 17.62L33.38 19.21" fill="none" stroke="#33373B" stroke-width="0.43"/><path d="M33.38 19.21C33.20 19.30 33.09 19.48 33.09 19.67" fill="none" stroke="#33373B" stroke-width="0.43"/><path d="M33.09 19.67L33.09 41.82" fill="none" stroke="#33373B" stroke-width="0.43"/><path d="M33.09 41.82C33.09 42.11 33.33 42.34 33.62 42.34" fill="none" stroke="#33373B" stroke-width="0.43"/><path d="M33.61 42.34L67.52 42.34" fill="none" stroke="#33373B" stroke-width="0.43"/><path d="M67.52 42.34C67.81 42.34 68.04 42.10 68.04 41.81" fill="none" stroke="#33373B" stroke-width="0.43"/><path d="M68.04 41.82L68.04 18.72" fill="none" stroke="#33373B" stroke-width="0.43"/><path d="M68.32 18.25C68.15 18.34 68.04 18.52 68.04 18.71" fill="none" stroke="#33373B" stroke-width="0.43"/><path d="M68.32 18.25L73.26 15.74L78.19 18.25" fill="none" stroke="#33373B" stroke-width="0.43"/><path d="M78.47 18.72C78.47 18.52 78.35 18.34 78.18 18.26" fill="none" stroke="#33373B" stroke-width="0.43"/><path d="M78.47 18.72L78.47 25.65" fill="none" stroke="#33373B" stroke-width="0.43"/><path d="M77.95 26.17C78.24 26.17 78.47 25.94 78.47 25.65" fill="none" stroke="#33373B" stroke-width="0.43"/><path d="M77.95 26.17L77.43 26.17" fill="none" stroke="#33373B" stroke-width="0.43"/><path d="M76.90 25.65C76.90 25.94 77.14 26.18 77.43 26.18" fill="none" stroke="#33373B" stroke-width="0.43"/><path d="M76.90 25.65L76.90 19.67" fill="none" stroke="#33373B" stroke-width="0.43"/><path d="M76.90 19.67C76.90 19.48 76.79 19.30 76.62 19.21" fill="none" stroke="#33373B" stroke-width="0.43"/><path d="M76.62 19.21L73.49 17.62" fill="none" stroke="#33373B" stroke-width="0.43"/><path d="M73.49 17.62C73.34 17.54 73.16 17.54 73.02 17.62" fill="none" stroke="#33373B" stroke-width="0.43"/><path d="M73.02 17.62L69.89 19.21" fill="none" stroke="#33373B" stroke-width="0.43"/><path d="M69.89 19.21C69.71 19.30 69.60 19.48 69.60 19.67" fill="none" stroke="#33373B" stroke-width="0.43"/><path d="M69.60 19.67L69.60 41.82" fill="none" stroke="#33373B" stroke-width="0.43"/><path d="M69.60 41.82C69.60 42.11 69.84 42.34 70.13 42.34" fill="none" stroke="#33373B" stroke-width="0.43"/><path d="M70.12 42.34L104.03 42.34" fill="none" stroke="#33373B" stroke-width="0.43"/><path d="M104.03 42.34C104.31 42.34 104.55 42.10 104.55 41.81" fill="none" stroke="#33373B" stroke-width="0.43"/><path d="M104.55 41.82L104.55 18.72" fill="none" stroke="#33373B" stroke-width="0.43"/><path d="M104.83 18.25C104.66 18.34 104.55 18.52 104.55 18.71" fill="none" stroke="#33373B" stroke-width="0.43"/><path d="M104.83 18.25L109.76 15.74L114.70 18.25" fill="none" stroke="#33373B" stroke-width="0.43"/><path d="M114.98 18.72C114.98 18.52 114.86 18.34 114.69 18.26" fill="none" stroke="#33373B" stroke-width="0.43"/><path d="M114.98 18.72L114.98 25.65" fill="none" stroke="#33373B" stroke-width="0.43"/><path d="M114.46 26.17C114.75 26.17 114.98 25.94 114.98 25.65" fill="none" stroke="#33373B" stroke-width="0.43"/><path d="M114.46 26.17L113.93 26.17" fill="none" stroke="#33373B" stroke-width="0.43"/><path d="M113.41 25.65C113.41 25.94 113.65 26.18 113.93 26.18" fill="none" stroke="#33373B" stroke-width="0.43"/><path d="M113.41 25.65L113.41 19.67" fill="none" stroke="#33373B" stroke-width="0.43"/><path d="M113.41 19.67C113.41 19.48 113.30 19.30 113.13 19.21" fill="none" stroke="#33373B" stroke-width="0.43"/><path d="M113.13 19.21L110.00 17.62" fill="none" stroke="#33373B" stroke-width="0.43"/><path d="M110.00 17.62C109.85 17.54 109.67 17.54 109.53 17.62" fill="none" stroke="#33373B" stroke-width="0.43"/><path d="M109.53 17.62L106.40 19.21" fill="none" stroke="#33373B" stroke-width="0.43"/><path d="M106.40 19.21C106.22 19.30 106.11 19.48 106.11 19.67" fill="none" stroke="#33373B" stroke-width="0.43"/><path d="M106.11 19.67L106.11 41.82" fill="none" stroke="#33373B" stroke-width="0.43"/><path d="M106.11 41.82C106.11 42.11 106.35 42.34 106.64 42.34" fill="none" stroke="#33373B" stroke-width="0.43"/><path d="M106.63 42.34L124.36 42.34" fill="none" stroke="#33373B" stroke-width="0.43"/><path d="M124.37 42.34C124.66 42.34 124.89 42.10 124.89 41.81" fill="none" stroke="#33373B" stroke-width="0.43"/><path d="M124.89 41.82L124.89 29.30" fill="none" stroke="#33373B" stroke-width="0.43"/><path d="M125.41 28.78C125.12 28.78 124.89 29.01 124.89 29.30" fill="none" stroke="#33373B" stroke-width="0.43"/><path d="M125.41 28.78L125.93 28.78" fill="none" stroke="#33373B" stroke-width="0.43"/><path d="M126.45 29.30C126.45 29.01 126.22 28.78 125.93 28.78" fill="none" stroke="#33373B" stroke-width="0.43"/><path d="M126.45 29.30L126.45 35.04" fill="none" stroke="#33373B" stroke-width="0.43"/><path d="M126.45 35.04C126.45 35.33 126.68 35.56 126.97 35.56" fill="none" stroke="#33373B" stroke-width="0.43"/><path d="M126.97 35.56L166.61 35.56" fill="none" stroke="#33373B" stroke-width="0.43"/><path d="M167.14 36.08C167.14 35.79 166.90 35.56 166.61 35.56" fill="none" stroke="#33373B" stroke-width="0.43"/><path d="M167.14 36.08L167.14 62.68" fill="none" stroke="#33373B" stroke-width="0.43"/><path d="M166.61 63.20C166.90 63.20 167.14 62.97 167.14 62.68" fill="none" stroke="#33373B" stroke-width="0.43"/><path d="M166.61 63.20L163.48 63.20" fill="none" stroke="#33373B" stroke-width="0.43"/><path d="M162.96 62.68C162.96 62.97 163.19 63.20 163.48 63.20" fill="none" stroke="#33373B" stroke-width="0.43"/><path d="M162.96 62.68L162.96 62.16" fill="none" stroke="#33373B" stroke-width="0.43"/><path d="M163.48 61.64C163.19 61.64 162.96 61.87 162.96 62.16" fill="none" stroke="#33373B" stroke-width="0.43"/><path d="M163.48 61.64L165.05 61.64" fill="none" stroke="#33373B" stroke-width="0.43"/><path d="M165.05 61.64C165.34 61.64 165.57 61.41 165.57 61.12" fill="none" stroke="#33373B" stroke-width="0.43"/><path d="M165.57 61.12L165.57 48.60" fill="none" stroke="#33373B" stroke-width="0.43"/><path d="M165.57 48.60C165.57 48.31 165.34 48.08 165.05 48.08" fill="none" stroke="#33373B" stroke-width="0.43"/><path d="M165.05 48.08L126.97 48.08" fill="none" stroke="#33373B" stroke-width="0.43"/><path d="M126.97 48.08C126.68 48.08 126.45 48.31 126.45 48.60" fill="none" stroke="#33373B" stroke-width="0.43"/><path d="M126.45 48.60L126.45 61.12" fill="none" stroke="#33373B" stroke-width="0.43"/><path d="M126.45 61.12C126.45 61.41 126.68 61.64 126.97 61.64" fill="none" stroke="#33373B" stroke-width="0.43"/><path d="M126.97 61.64L128.54 61.64" fill="none" stroke="#33373B" stroke-width="0.43"/><path d="M129.06 62.16C129.06 61.87 128.83 61.63 128.54 61.63" fill="none" stroke="#33373B" stroke-width="0.43"/><path d="M129.06 62.16L129.06 62.68" fill="none" stroke="#33373B" stroke-width="0.43"/><path d="M128.54 63.20C128.83 63.20 129.06 62.97 129.06 62.68" fill="none" stroke="#33373B" stroke-width="0.43"/><path d="M128.54 63.20L125.41 63.20" fill="none" stroke="#33373B" stroke-width="0.43"/><path d="M124.89 62.68C124.89 62.97 125.12 63.20 125.41 63.20" fill="none" stroke="#33373B" stroke-width="0.43"/><path d="M124.89 62.68L124.89 58.51" fill="none" stroke="#33373B" stroke-width="0.43"/><path d="M124.89 58.51C124.89 58.22 124.65 57.99 124.36 57.99" fill="none" stroke="#33373B" stroke-width="0.43"/><path d="M165.05 46.51L126.97 46.51" fill="none" stroke="#33373B" stroke-width="0.43"/><path d="M126.45 45.99C126.45 46.28 126.68 46.51 126.97 46.51" fill="none" stroke="#33373B" stroke-width="0.43"/><path d="M126.45 45.99L126.45 37.64" fill="none" stroke="#33373B" stroke-width="0.43"/><path d="M126.97 37.13C126.68 37.13 126.45 37.36 126.45 37.65" fill="none" stroke="#33373B" stroke-width="0.43"/><path d="M126.97 37.13L165.05 37.13" fill="none" stroke="#33373B" stroke-width="0.43"/><path d="M165.57 37.64C165.57 37.35 165.34 37.12 165.05 37.12" fill="none" stroke="#33373B" stroke-width="0.43"/><path d="M165.57 37.64L165.57 45.99" fill="none" stroke="#33373B" stroke-width="0.43"/><path d="M165.05 46.51C165.34 46.51 165.57 46.28 165.57 45.99" fill="none" stroke="#33373B" stroke-width="0.43"/><path d="M31.53 67.87L31.53 81.55" fill="none" stroke="#33373B" stroke-width="0.13"/><path d="M167.14 67.87L167.14 81.55" fill="none" stroke="#33373B" stroke-width="0.13"/><path d="M36.19 76.88L162.47 76.88" fill="none" stroke="#33373B" stroke-width="0.13"/><path d="M36.19 76.10L36.19 77.66L31.53 76.88L36.19 76.10" fill="none" stroke="#33373B" stroke-width="0.13"/><path d="M36.19 76.10L36.19 77.66L31.53 76.88L36.19 76.10" fill="#0E2A47" stroke="none"/><path d="M162.47 77.66L162.47 76.10L167.13 76.88L162.47 77.66" fill="none" stroke="#33373B" stroke-width="0.13"/><path d="M162.47 77.66L162.47 76.10L167.13 76.88L162.47 77.66" fill="#0E2A47" stroke="none"/><path d="M31.56 15.74L11.73 15.74" fill="none" stroke="#33373B" stroke-width="0.13"/><path d="M28.43 63.20L11.73 63.20" fill="none" stroke="#33373B" stroke-width="0.13"/><path d="M16.40 20.41L16.40 34.75" fill="none" stroke="#33373B" stroke-width="0.13"/><path d="M16.40 58.54L16.40 44.19" fill="none" stroke="#33373B" stroke-width="0.13"/><path d="M17.17 20.41L15.62 20.41L16.40 15.74L17.17 20.41" fill="none" stroke="#33373B" stroke-width="0.13"/><path d="M17.17 20.41L15.62 20.41L16.40 15.74L17.17 20.41" fill="#0E2A47" stroke="none"/><path d="M15.62 58.54L17.17 58.54L16.40 63.20L15.62 58.54" fill="none" stroke="#33373B" stroke-width="0.13"/><path d="M15.62 58.54L17.17 58.54L16.40 63.20L15.62 58.54" fill="#0E2A47" stroke="none"/><path d="M140.83 37.13L140.63 37.13" fill="none" stroke="#33373B" stroke-width="0.13"/><path d="M140.83 35.56L140.63 35.56" fill="none" stroke="#33373B" stroke-width="0.13"/><path d="M145.29 41.79L145.29 46.45" fill="none" stroke="#33373B" stroke-width="0.13"/><path d="M145.29 30.89L145.29 26.23" fill="none" stroke="#33373B" stroke-width="0.13"/><path d="M146.07 41.79L144.52 41.79L145.29 37.13L146.07 41.79" fill="none" stroke="#33373B" stroke-width="0.13"/><path d="M146.07 41.79L144.52 41.79L145.29 37.13L146.07 41.79" fill="#0E2A47" stroke="none"/><path d="M144.52 30.89L146.07 30.89L145.29 35.56L144.52 30.89" fill="none" stroke="#33373B" stroke-width="0.13"/><path d="M144.52 30.89L146.07 30.89L145.29 35.56L144.52 30.89" fill="#0E2A47" stroke="none"/><text x="8.06" y="42.29" font-size="7.3">45.50</text><text x="88.91" y="74.98" font-size="7.3">130.00</text><text x="139.62" y="23.11" font-size="7.3">1.50</text></g></svg>