<svg xmlns="http://www.w3.org/2000/svg" viewBox="0 0 185.16 101.43" width="185" height="101"><g font-family="Inter, Helvetica, Arial, sans-serif" fill="#33373B"><path d="M62.74 25.94L62.74 32.43L62.76 32.61L62.81 32.80L62.89 32.97L63.00 33.12L63.13 33.25L63.28 33.36L63.45 33.44L63.64 33.49L63.82 33.51L64.45 33.51L64.64 33.49L64.82 33.44L64.99 33.36L65.14 33.25L65.28 33.12L65.38 32.97L65.46 32.80L65.51 32.61L65.53 32.43L65.53 27.65L84.34 27.65L84.34 60.96L65.53 60.96L65.53 56.18L65.51 56.00L65.46 55.81L65.38 55.64L65.27 55.49L65.14 55.36L64.99 55.25L64.81 55.17L64.63 55.12L64.44 55.10L63.82 55.10L63.64 55.12L63.45 55.17L63.28 55.25L63.13 55.36L63.00 55.49L62.89 55.64L62.81 55.81L62.76 56.00L62.74 56.18L62.74 62.66L62.76 62.85L62.81 63.04L62.89 63.21L63.00 63.36L63.13 63.49L63.28 63.60L63.45 63.68L63.64 63.73L63.82 63.75L148.05 63.75L148.24 63.73L148.42 63.68L148.60 63.60L148.75 63.49L148.88 63.36L148.99 63.21L149.07 63.04L149.12 62.85L149.13 62.66L149.13 62.03L149.12 61.85L149.07 61.66L148.99 61.49L148.88 61.34L148.75 61.21L148.60 61.10L148.42 61.02L148.24 60.97L148.05 60.95L130.78 60.95L130.78 25.94L130.76 25.76L130.71 25.57L130.63 25.40L130.52 25.25L130.39 25.12L130.24 25.01L130.07 24.93L129.88 24.88L129.69 24.86L63.82 24.86L63.64 24.88L63.45 24.93L63.28 25.01L63.13 25.12L63.00 25.25L62.89 25.40L62.81 25.57L62.76 25.76L62.74 25.94M87.12 51.09L87.12 60.96L127.99 60.96L127.99 51.10L127.97 50.92L127.93 50.74L127.85 50.57L127.75 50.42L127.62 50.29L127.48 50.18L127.31 50.10L127.13 50.05L126.95 50.03L126.77 50.04L126.59 50.08L126.18 50.19L125.76 50.28L125.34 50.34L124.92 50.36L124.49 50.36L124.06 50.32L123.64 50.26L123.22 50.16L122.82 50.04L122.42 49.89L122.03 49.71L121.66 49.51L121.31 49.28L121.15 49.15L121.01 49.01L120.90 48.84L120.81 48.67L120.75 48.48L120.71 48.28L120.71 48.08L120.73 47.88L120.78 47.69L120.86 47.51L120.96 47.33L121.09 47.18L121.23 47.04L121.39 46.93L121.57 46.84L121.76 46.78L121.96 46.74L122.16 46.74L122.36 46.76L122.55 46.81L122.73 46.88L122.90 46.98L123.16 47.15L123.44 47.28L123.72 47.40L124.02 47.48L124.32 47.53L124.62 47.56L124.93 47.56L125.23 47.53L125.53 47.47L125.82 47.38L126.11 47.26L126.38 47.12L126.64 46.95L126.88 46.76L127.10 46.55L127.30 46.31L127.48 46.06L127.63 45.80L127.76 45.52L127.86 45.23L127.93 44.93L127.98 44.63L127.99 44.32L127.98 44.02L127.93 43.71L127.86 43.41L127.76 43.12L127.63 42.84L127.48 42.58L127.30 42.33L127.10 42.10L126.88 41.88L126.64 41.69L126.38 41.52L126.11 41.38L125.82 41.26L125.53 41.18L125.23 41.12L124.93 41.09L124.62 41.09L124.32 41.11L124.02 41.17L123.72 41.25L123.44 41.36L123.16 41.50L122.90 41.66L122.73 41.76L122.55 41.84L122.36 41.89L122.16 41.91L121.96 41.90L121.76 41.87L121.57 41.81L121.39 41.72L121.23 41.60L121.09 41.47L120.96 41.31L120.86 41.14L120.78 40.95L120.73 40.76L120.71 40.56L120.71 40.37L120.75 40.17L120.81 39.98L120.90 39.80L121.01 39.64L121.15 39.49L121.31 39.36L121.66 39.14L122.03 38.93L122.42 38.76L122.82 38.60L123.22 38.48L123.64 38.39L124.06 38.32L124.49 38.29L124.92 38.28L125.34 38.31L125.76 38.36L126.18 38.45L126.59 38.57L126.77 38.61L126.95 38.62L127.13 38.60L127.31 38.55L127.48 38.47L127.62 38.36L127.75 38.23L127.85 38.07L127.93 37.91L127.97 37.73L127.99 37.55L127.99 27.65L87.12 27.65L87.12 37.51L87.14 37.69L87.18 37.87L87.26 38.04L87.36 38.19L87.49 38.32L87.64 38.43L87.80 38.51L87.98 38.56L88.16 38.58L88.34 38.57L88.52 38.53L88.93 38.41L89.35 38.33L89.77 38.27L90.20 38.25L90.62 38.25L91.05 38.29L91.47 38.35L91.89 38.45L92.29 38.57L92.69 38.72L93.08 38.90L93.45 39.10L93.80 39.33L93.96 39.46L94.10 39.60L94.21 39.77L94.30 39.94L94.36 40.13L94.40 40.33L94.40 40.53L94.38 40.73L94.33 40.92L94.25 41.10L94.15 41.27L94.03 41.43L93.88 41.57L93.72 41.68L93.54 41.77L93.35 41.83L93.15 41.87L92.95 41.87L92.76 41.85L92.56 41.80L92.38 41.73L92.21 41.63L91.95 41.46L91.67 41.33L91.39 41.21L91.10 41.13L90.80 41.08L90.49 41.05L90.19 41.05L89.88 41.08L89.58 41.14L89.29 41.23L89.00 41.35L88.73 41.49L88.47 41.66L88.23 41.85L88.01 42.06L87.81 42.30L87.63 42.54L87.48 42.81L87.35 43.09L87.25 43.38L87.18 43.68L87.13 43.98L87.12 44.29L87.13 44.59L87.18 44.90L87.25 45.20L87.35 45.49L87.48 45.76L87.63 46.03L87.81 46.28L88.01 46.51L88.23 46.72L88.47 46.92L88.73 47.09L89.00 47.23L89.29 47.34L89.58 47.43L89.88 47.49L90.19 47.52L90.49 47.52L90.80 47.50L91.10 47.44L91.39 47.36L91.67 47.25L91.95 47.11L92.21 46.95L92.38 46.85L92.56 46.77L92.76 46.72L92.95 46.70L93.15 46.70L93.35 46.74L93.54 46.80L93.72 46.89L93.88 47.00L94.03 47.14L94.15 47.30L94.25 47.47L94.33 47.65L94.38 47.85L94.40 48.05L94.40 48.24L94.36 48.44L94.30 48.63L94.21 48.81L94.10 48.97L93.96 49.12L93.80 49.24L93.45 49.47L93.08 49.68L92.69 49.85L92.29 50.01L91.89 50.13L91.47 50.22L91.05 50.29L90.62 50.32L90.20 50.33L89.77 50.30L89.35 50.25L88.93 50.16L88.52 50.04L88.34 50.00L88.16 49.99L87.98 50.01L87.80 50.06L87.64 50.14L87.49 50.25L87.36 50.38L87.26 50.53L87.18 50.70L87.14 50.88L87.12 51.06" fill="#0E2A47" stroke="none" fill-rule="evenodd"/><path d="M130.78 25.94L130.78 60.96L148.06 60.96" fill="none" stroke="#33373B" stroke-width="0.43"/><path d="M149.13 62.03C149.13 61.44 148.65 60.95 148.05 60.95" fill="none" stroke="#33373B" stroke-width="0.43"/><path d="M149.13 62.03L149.13 62.66" fill="none" stroke="#33373B" stroke-width="0.43"/><path d="M148.05 63.74C148.65 63.74 149.13 63.26 149.13 62.66" fill="none" stroke="#33373B" stroke-width="0.43"/><path d="M148.05 63.74L63.82 63.74" fill="none" stroke="#33373B" stroke-width="0.43"/><path d="M62.74 62.66C62.74 63.26 63.22 63.75 63.82 63.75" fill="none" stroke="#33373B" stroke-width="0.43"/><path d="M62.74 62.66L62.74 56.18" fill="none" stroke="#33373B" stroke-width="0.43"/><path d="M63.82 55.10C63.23 55.10 62.74 55.58 62.74 56.18" fill="none" stroke="#33373B" stroke-width="0.43"/><path d="M63.82 55.10L64.45 55.10" fill="none" stroke="#33373B" stroke-width="0.43"/><path d="M65.53 56.18C65.53 55.59 65.04 55.10 64.44 55.10" fill="none" stroke="#33373B" stroke-width="0.43"/><path d="M65.53 56.18L65.53 60.96L84.34 60.96L84.34 27.65L65.53 27.65L65.53 32.43" fill="none" stroke="#33373B" stroke-width="0.43"/><path d="M64.45 33.50C65.04 33.50 65.53 33.02 65.53 32.42" fill="none" stroke="#33373B" stroke-width="0.43"/><path d="M64.45 33.50L63.82 33.50" fill="none" stroke="#33373B" stroke-width="0.43"/><path d="M62.74 32.43C62.74 33.02 63.22 33.51 63.82 33.51" fill="none" stroke="#33373B" stroke-width="0.43"/><path d="M62.74 32.43L62.74 25.94" fill="none" stroke="#33373B" stroke-width="0.43"/><path d="M63.82 24.87C63.23 24.87 62.74 25.35 62.74 25.95" fill="none" stroke="#33373B" stroke-width="0.43"/><path d="M63.82 24.87L129.69 24.87" fill="none" stroke="#33373B" stroke-width="0.43"/><path d="M130.78 25.94C130.78 25.35 130.29 24.86 129.69 24.86" fill="none" stroke="#33373B" stroke-width="0.43"/><path d="M87.12 44.30C87.12 46.09 88.58 47.54 90.36 47.54C91.02 47.54 91.67 47.34 92.21 46.96" fill="none" stroke="#33373B" stroke-width="0.43"/><path d="M93.82 49.27C94.45 48.83 94.61 47.95 94.17 47.31C93.73 46.67 92.85 46.52 92.21 46.96" fill="none" stroke="#33373B" stroke-width="0.43"/><path d="M88.53 50.07C90.32 50.64 92.27 50.34 93.82 49.27" fill="none" stroke="#33373B" stroke-width="0.43"/><path d="M88.53 50.07C87.96 49.88 87.36 50.20 87.17 50.77C87.14 50.87 87.12 50.99 87.12 51.09" fill="none" stroke="#33373B" stroke-width="0.43"/><path d="M87.12 51.10L87.12 60.96L127.99 60.96L127.99 51.10" fill="none" stroke="#33373B" stroke-width="0.43"/><path d="M127.99 51.10C127.99 50.50 127.51 50.02 126.91 50.02C126.79 50.02 126.68 50.03 126.58 50.07" fill="none" stroke="#33373B" stroke-width="0.43"/><path d="M121.29 49.27C122.84 50.34 124.79 50.64 126.58 50.07" fill="none" stroke="#33373B" stroke-width="0.43"/><path d="M122.90 46.96C122.26 46.52 121.38 46.68 120.94 47.31C120.50 47.95 120.66 48.83 121.29 49.27" fill="none" stroke="#33373B" stroke-width="0.43"/><path d="M122.90 46.96C124.37 47.98 126.39 47.62 127.41 46.16C127.79 45.61 127.99 44.97 127.99 44.31" fill="none" stroke="#33373B" stroke-width="0.43"/><path d="M127.99 44.30C127.99 42.51 126.54 41.06 124.75 41.06C124.09 41.06 123.44 41.26 122.90 41.64" fill="none" stroke="#33373B" stroke-width="0.43"/><path d="M121.29 39.34C120.66 39.78 120.50 40.65 120.94 41.29C121.38 41.93 122.26 42.09 122.90 41.65" fill="none" stroke="#33373B" stroke-width="0.43"/><path d="M126.58 38.54C124.79 37.97 122.84 38.27 121.29 39.34" fill="none" stroke="#33373B" stroke-width="0.43"/><path d="M126.58 38.54C127.15 38.72 127.75 38.41 127.94 37.84C127.97 37.73 127.99 37.62 127.99 37.52" fill="none" stroke="#33373B" stroke-width="0.43"/><path d="M127.99 37.51L127.99 27.65L87.12 27.65L87.12 37.51" fill="none" stroke="#33373B" stroke-width="0.43"/><path d="M87.12 37.51C87.12 38.11 87.61 38.59 88.21 38.59C88.32 38.59 88.43 38.58 88.53 38.54" fill="none" stroke="#33373B" stroke-width="0.43"/><path d="M93.82 39.34C92.27 38.27 90.32 37.97 88.53 38.54" fill="none" stroke="#33373B" stroke-width="0.43"/><path d="M92.21 41.65C92.85 42.09 93.73 41.93 94.17 41.29C94.61 40.66 94.45 39.78 93.82 39.34" fill="none" stroke="#33373B" stroke-width="0.43"/><path d="M92.21 41.65C90.74 40.62 88.72 40.99 87.70 42.45C87.33 43.00 87.12 43.64 87.12 44.30" fill="none" stroke="#33373B" stroke-width="0.43"/><path d="M62.74 67.69L62.74 86.85" fill="none" stroke="#33373B" stroke-width="0.13"/><path d="M149.13 67.69L149.13 86.85" fill="none" stroke="#33373B" stroke-width="0.13"/><path d="M67.40 82.19L144.47 82.19" fill="none" stroke="#33373B" stroke-width="0.13"/><path d="M67.40 81.41L67.40 82.96L62.74 82.19L67.40 81.41" fill="none" stroke="#33373B" stroke-width="0.13"/><path d="M67.40 81.41L67.40 82.96L62.74 82.19L67.40 81.41" fill="#0E2A47" stroke="none"/><path d="M144.47 82.96L144.47 81.41L149.13 82.19L144.47 82.96" fill="none" stroke="#33373B" stroke-width="0.13"/><path d="M144.47 82.96L144.47 81.41L149.13 82.19L144.47 82.96" fill="#0E2A47" stroke="none"/><path d="M58.64 24.87L36.49 24.87" fill="none" stroke="#33373B" stroke-width="0.13"/><path d="M58.64 63.74L36.49 63.74" fill="none" stroke="#33373B" stroke-width="0.13"/><path d="M41.15 29.53L41.15 39.58" fill="none" stroke="#33373B" stroke-width="0.13"/><path d="M41.15 59.08L41.15 49.03" fill="none" stroke="#33373B" stroke-width="0.13"/><path d="M41.93 29.53L40.38 29.53L41.15 24.87L41.93 29.53" fill="none" stroke="#33373B" stroke-width="0.13"/><path d="M41.93 29.53L40.38 29.53L41.15 24.87L41.93 29.53" fill="#0E2A47" stroke="none"/><path d="M40.38 59.08L41.93 59.08L41.15 63.74L40.38 59.08" fill="none" stroke="#33373B" stroke-width="0.13"/><path d="M40.38 59.08L41.93 59.08L41.15 63.74L40.38 59.08" fill="#0E2A47" stroke="none"/><path d="M102.89 27.65L103.20 27.65" fill="none" stroke="#33373B" stroke-width="0.13"/><path d="M102.89 24.87L103.20 24.87" fill="none" stroke="#33373B" stroke-width="0.13"/><path d="M107.87 32.32L107.87 36.98" fill="none" stroke="#33373B" stroke-width="0.13"/><path d="M107.87 20.20L107.87 15.54" fill="none" stroke="#33373B" stroke-width="0.13"/><path d="M108.65 32.32L107.09 32.32L107.87 27.66L108.65 32.32" fill="none" stroke="#33373B" stroke-width="0.13"/><path d="M108.65 32.32L107.09 32.32L107.87 27.66L108.65 32.32" fill="#0E2A47" stroke="none"/><path d="M107.09 20.20L108.65 20.20L107.87 24.86L107.09 20.20" fill="none" stroke="#33373B" stroke-width="0.13"/><path d="M107.09 20.20L108.65 20.20L107.87 24.86L107.09 20.20" fill="#0E2A47" stroke="none"/><text x="32.59" y="47.13" font-size="7.3">18.00</text><text x="97.60" y="80.29" font-size="7.3">40.00</text><text x="101.40" y="12.13" font-size="7.3">1.29</text></g></svg>